# xmcd
#
# Track frame offsets:
#	150
#	13115
#	27209
#	44036
#	56302
#	69604
#	85620
#	99829
#	117686
#	132395
#	148224
#	161351
#	176014
#	190110
#
# Disc length: 2711 seconds
# Revision: 0
# Processed by: cddbd v1.5.2PL0 Copyright (c) Steve Scherf et al.
# Submitted via: dBpowerAMP V12.0
#
DISCID=c00a950e
DTITLE=Stephanie Urbina Jones - Tularosa
DYEAR=2018
DGENRE=
TTITLE0=Walkin' After Midnight
TTITLE1=Jolene
TTITLE2=Cold, Cold Heart
TTITLE3=Rose Garden
TTITLE4=Ring of Fire
TTITLE5=For The Good Times
TTITLE6=Harper Valley PTA
TTITLE7=Seven Spanish Angels
TTITLE8=Tiger by the Tail
TTITLE9=Silver Wings
TTITLE10=You Ain't Woman Enough (To Take My Man)
TTITLE11=Is Anybody Going to San Antone
TTITLE12=Jolene (Spanish)
TTITLE13=Ring of Fire (Spanish)
EXTD=
EXTT0=
EXTT1=
EXTT2=
EXTT3=
EXTT4=
EXTT5=
EXTT6=
EXTT7=
EXTT8=
EXTT9=
EXTT10=
EXTT11=
EXTT12=
EXTT13=
PLAYORDER=
